<svg width="45" height="45" viewBox="0 0 45 45" fill="none" xmlns="http://www.w3.org/2000/svg">
<rect width="45" height="45" rx="15" fill="#F9F9F9"/>
<path d="M18.9064 34.332C19.3754 33.8974 19.8758 32.8143 20.4194 30.6205C20.4217 30.6119 20.4233 30.6048 20.4241 30.5962C20.4515 30.4268 20.8445 27.7146 19.955 25.1435C19.8656 24.8855 20.1911 24.6886 20.3754 24.8902L20.6625 25.7522C20.817 25.9216 21.0986 25.8118 21.0986 25.5827V24.0149C21.0986 23.8666 21.2265 23.7505 21.3739 23.7654L22.7975 23.905C22.9261 23.9176 23.0241 24.0258 23.0241 24.1545V25.2557C23.0241 25.4831 23.3026 25.5929 23.4579 25.4274L24.9552 23.6666C25.0924 23.5199 25.3387 23.5866 25.3826 23.7827L25.505 24.3231C25.527 24.4204 25.4901 24.5223 25.4093 24.5804C24.8501 24.9804 22.483 27.5404 23.294 31.7593C23.2963 31.7719 23.2987 31.7829 23.3034 31.7946C23.3575 31.9546 23.5395 33.2276 24.6265 34.2574C24.7709 34.3939 24.7105 34.6347 24.5183 34.6826C24.2407 34.7524 23.8948 34.8457 23.6383 34.9367C22.8924 35.2002 21.8829 34.5704 21.5441 34.3359C21.4704 34.2849 21.3778 34.2778 21.297 34.3155C20.9143 34.4967 19.799 34.9963 19.3644 34.8724C19.2162 34.83 19.0923 34.7877 18.9895 34.7484C18.8131 34.6841 18.7683 34.4598 18.9064 34.332Z" fill="#9A795F"/>
<path d="M15.1721 24.0478C15.3329 23.6988 15.2811 23.2611 15.0435 22.9592C14.8058 22.6572 14.3932 22.5035 14.016 22.5764C14.1289 22.7333 14.0011 22.9701 13.8207 23.0384C13.6403 23.1074 13.4379 23.0603 13.2505 23.0133C12.9187 22.9301 12.5869 22.8462 12.2544 22.7631C12.0497 22.7113 11.8324 22.6525 11.6912 22.4956C11.4653 22.2431 11.5265 21.854 11.601 21.5238C11.6308 21.3936 11.6598 21.2634 11.6897 21.1332C11.7861 20.7089 11.8818 20.2854 11.9783 19.861C12.0591 19.5065 12.234 19.0712 12.5971 19.0697C12.5226 18.6289 12.521 18.0492 12.936 17.8837C13.1116 17.8139 13.3093 17.8492 13.4975 17.8343C13.9987 17.7951 14.4332 17.3394 14.4482 16.8367C14.4568 16.5621 14.3556 16.2868 14.4011 16.0162C14.4466 15.7449 14.7548 15.4868 14.9831 15.6405C14.9666 15.3927 14.9486 15.1448 14.9313 14.897C15.0795 14.8554 15.2278 14.8139 15.376 14.7723C15.3344 14.5229 15.1556 14.3244 15.0176 14.1127C14.8803 13.9009 14.7807 13.6209 14.9086 13.4028C15.0372 13.1856 15.4654 13.2232 15.4607 13.4758C15.5933 13.4428 15.7258 13.4091 15.8584 13.3762C15.7854 13.1409 15.7117 12.8954 15.7462 12.6514C15.7807 12.4067 15.9564 12.1636 16.2019 12.1369C16.4113 12.1142 16.6019 12.2459 16.7706 12.3714C16.9902 12.5354 17.2106 12.6993 17.4302 12.8632C17.562 12.9613 17.7086 13.064 17.8726 13.0546C18.0365 13.0452 18.1894 12.8546 18.0992 12.7173C17.7212 12.6569 17.5612 12.2099 17.4835 11.8357C17.4372 11.6122 17.3988 11.362 17.5251 11.1722C17.6318 11.0122 17.8271 10.9416 18.0098 10.8804C18.8145 10.6106 19.6193 10.3408 20.424 10.0702C20.5707 10.0208 20.7338 9.97216 20.8758 10.0333C21.0601 10.1133 21.1369 10.3486 21.3197 10.4318C21.5346 10.529 21.9134 10.4679 21.9095 10.7039C21.9895 10.5683 22.0695 10.4326 22.1503 10.2969C22.2476 10.4341 22.3456 10.5706 22.4429 10.7079C22.5393 10.4255 22.697 10.0937 22.9943 10.071C23.2452 10.0514 23.4437 10.2694 23.6743 10.3714C23.9049 10.4734 24.2837 10.3016 24.1708 10.0765C24.4578 9.89687 24.8351 10.0631 25.1018 10.271C25.3684 10.4788 25.6304 10.7416 25.9677 10.7675C26.2139 10.7863 26.461 10.6702 26.7042 10.7134C27.0649 10.7769 27.3073 11.1659 27.6712 11.2122C27.9316 11.2451 28.1748 11.0922 28.4273 11.0185C28.6799 10.9447 29.0273 11.0028 29.087 11.2585C29.1136 11.3746 29.0697 11.4985 29.0972 11.6146C29.1536 11.853 29.4501 11.9189 29.6736 12.0185C29.8972 12.1181 30.0768 12.4601 29.8611 12.5754C30.1866 12.515 30.5395 12.7307 30.6344 13.0475C30.7403 13.4021 30.5654 13.8523 30.8243 14.1174C31.0203 14.3182 31.3772 14.2954 31.5584 14.5103C31.7443 14.7299 31.6447 15.0578 31.6141 15.3441C31.5827 15.6303 31.7545 16.0139 32.0337 15.9449C32.138 15.919 32.2392 15.8288 32.3396 15.8672C32.411 15.8947 32.4439 15.9755 32.4659 16.0484C32.5568 16.3535 32.5882 16.6759 32.5584 16.9935C32.7035 16.9653 32.8416 16.9041 32.96 16.8163C33.1365 17.963 32.658 19.0979 32.4886 20.2454C32.4659 20.3983 32.4557 20.5732 32.5592 20.6877C32.6423 20.7795 32.7741 20.803 32.8886 20.8524C33.4377 21.0885 33.4918 21.8321 33.4596 22.429C33.4502 22.6062 33.4314 22.8039 33.2965 22.9192C33.0282 23.149 32.6235 22.847 32.2714 22.8854C31.5756 22.9623 31.6321 24.1647 30.9866 24.4337C30.6509 24.5741 30.276 24.3945 29.9144 24.3545C29.5529 24.3137 29.0807 24.5929 29.2172 24.9302C29.2877 25.1035 29.4901 25.32 29.3332 25.422C28.7732 25.1459 28.214 24.869 27.654 24.5929C27.6391 24.8416 27.5936 25.0878 27.5199 25.3263C27.2461 25.462 26.992 25.1278 26.821 24.8753C26.3637 24.2008 25.5316 23.7992 24.719 23.8604C24.61 24.0768 24.8696 24.2925 25.0947 24.3819C25.3198 24.4714 25.6022 24.6133 25.5724 24.8541C25.5496 25.04 25.3292 25.1451 25.1441 25.1192C24.959 25.0933 24.8014 24.9773 24.6437 24.8761C23.8853 24.3859 22.9558 24.1678 22.0585 24.2682C21.893 24.287 21.7228 24.3176 21.5824 24.4078C21.4405 24.4988 21.3409 24.6423 21.213 24.7521C20.9871 24.9459 20.6875 25.0251 20.3997 25.0988C20.0459 25.189 19.693 25.2792 19.3393 25.3694C19.1479 25.418 18.944 25.4667 18.7565 25.4055C18.58 25.3482 18.4483 25.2031 18.2953 25.098C17.8192 24.7733 17.1894 24.8588 16.6129 24.8478C16.0364 24.8369 15.3494 24.6102 15.2293 24.0462" fill="#8CC63E"/>
<path d="M23.1318 15.617C22.7953 15.1668 22.0157 15.1778 21.778 14.6688C21.6941 14.4884 21.7019 14.2774 21.7521 14.0844C21.8816 13.5911 22.2635 13.2068 22.4847 12.7471C22.7059 12.2875 22.6878 11.613 22.2235 11.4004C22.0706 11.3298 21.8965 11.3251 21.7278 11.3244C20.6729 11.3165 19.6172 11.3973 18.5756 11.5659C18.4838 11.5808 18.3858 11.5989 18.3168 11.6616C18.1387 11.824 18.2728 12.1095 18.3513 12.3369C18.5011 12.7683 18.3795 13.2805 18.0532 13.5997C17.7269 13.9189 17.2116 14.0279 16.7842 13.8687C16.643 14.3825 16.9465 14.9974 16.6399 15.4327C16.5175 15.606 16.3214 15.708 16.1442 15.8264C15.5355 16.2311 15.0994 16.8876 14.9622 17.6061L14.8218 17.8108C15.2139 18.0963 15.6053 18.381 15.9975 18.6665C16.2853 18.8759 16.6775 19.0893 16.9693 18.8853C17.1481 18.7598 17.2171 18.5112 17.4077 18.4045C17.5152 18.3441 17.6446 18.3394 17.7677 18.3371C18.2195 18.3261 18.7136 18.3285 19.065 18.6132C19.3466 18.8414 19.5913 19.2571 19.9419 19.1646C20.1733 19.1034 20.2831 18.8375 20.316 18.6006C20.349 18.3637 20.3435 18.1065 20.4776 17.9088C20.6102 17.7127 20.8494 17.6202 21.0776 17.5575C21.6219 17.4084 22.2086 17.3574 22.6855 17.0563C23.1624 16.7535 23.469 16.0696 23.1318 15.617Z" fill="#77AA31"/>
<path d="M24.1615 21.0219C23.9803 20.9482 23.7763 20.9395 23.5967 20.8619C23.4171 20.7842 23.2571 20.5905 23.3199 20.4046C23.3489 20.3191 23.4179 20.2556 23.4775 20.1874C23.8132 19.8054 23.8548 19.1975 23.5803 18.7685C23.3057 18.3403 22.7434 18.1222 22.25 18.2469C21.981 18.3144 21.7104 18.5199 21.7065 18.7967C21.7049 18.9073 21.7457 19.0132 21.7606 19.1222C21.8265 19.6195 21.3253 20.0344 20.8288 20.1042C20.3323 20.174 19.8374 20.0109 19.3425 19.9301C18.788 19.8399 18.2178 19.8524 17.668 19.9685C17.4429 20.0156 17.2154 20.0807 16.9872 20.0509C16.5903 19.9983 16.293 19.6783 15.9824 19.4258C15.6718 19.1724 15.2279 18.9709 14.8851 19.1779C14.7973 19.5575 14.8679 19.9709 15.0765 20.3003C15.1683 20.4454 15.2906 20.5968 15.2632 20.7654C15.2279 20.9756 14.9793 21.076 14.7659 21.0838C14.5526 21.0917 14.3275 21.0509 14.1338 21.1403C13.8749 21.2611 13.7698 21.6282 13.9267 21.8674L14.1487 22.2572C15.4993 22.6862 16.8719 23.1262 18.0382 23.931C18.2272 24.062 18.4444 24.2086 18.6672 24.1537C19.0813 24.051 19.046 23.4361 19.3127 23.1019C19.5896 22.7545 20.1386 22.7929 20.5402 22.9819C20.9418 23.1717 21.2924 23.4768 21.7222 23.5882C22.083 23.6815 22.4642 23.6274 22.8281 23.5498C23.454 23.4164 24.1097 23.1835 24.4791 22.6611C24.8485 22.1396 24.7544 21.2642 24.1615 21.0219Z" fill="#77AA31"/>
<path d="M31.7703 21.4885C31.5224 21.3324 31.2228 21.2673 30.9914 21.0885C30.7593 20.9105 30.6283 20.5348 30.8385 20.3308C30.8879 20.2822 30.9514 20.2501 31.0032 20.2046C31.1789 20.0501 31.1797 19.7395 31.0048 19.5842C30.8009 19.403 30.4887 19.4618 30.2189 19.5026C29.9491 19.5434 29.6063 19.5159 29.4981 19.2657C29.3749 18.9826 29.6824 18.6837 29.9844 18.6202C30.2863 18.5567 30.611 18.6171 30.902 18.512C31.2628 18.3818 31.5052 17.9826 31.4542 17.6022C31.4307 17.4265 31.3413 17.25 31.1844 17.1684C30.9914 17.068 30.7577 17.1323 30.5507 17.199C30.2903 17.2821 30.0306 17.3661 29.7702 17.4492C29.5091 17.5331 29.2306 17.6178 28.9639 17.5512C28.5318 17.4429 28.2855 16.9841 27.8949 16.7708C27.4423 16.5229 26.8855 16.6429 26.3858 16.7684C25.8752 16.897 25.287 17.0931 25.1207 17.5927C25.0407 17.8327 24.9599 18.199 24.7136 18.1378C24.6297 18.1175 24.5709 18.0445 24.5152 17.9786C24.2266 17.6406 23.8046 17.3708 23.3622 17.4186C22.9199 17.4665 22.53 17.948 22.6995 18.359L22.5889 18.5606C23.0179 18.8657 23.6618 18.77 24.0415 19.1347C24.2171 19.3034 24.3034 19.5426 24.4446 19.741C24.6948 20.0901 25.1301 20.2979 25.5591 20.2728C25.9882 20.2469 26.3952 19.9889 26.6023 19.6124C26.7309 19.3779 26.8204 19.0712 27.0776 18.9983C27.1851 18.9677 27.2996 18.9889 27.4094 19.01C27.9176 19.1073 28.502 19.2618 28.7082 19.7371C28.7608 19.8579 28.7835 19.992 28.8534 20.1034C28.9098 20.1928 28.9922 20.261 29.0737 20.3285C29.7373 20.8752 30.4001 21.4219 31.0636 21.9685C31.2126 22.0917 31.3695 22.218 31.5585 22.2603C31.7475 22.3019 31.9766 22.2297 32.0479 22.0493C32.1311 21.8399 31.9625 21.6101 31.7703 21.4885Z" fill="#77AA31"/>
<path d="M26.7551 13.9927C26.6885 13.9409 26.6155 13.893 26.5677 13.824C26.4736 13.6875 26.4971 13.5056 26.483 13.3409C26.4508 12.962 26.1928 12.6256 25.8618 12.4381C25.5308 12.2506 25.1371 12.2004 24.7582 12.2295L24.581 12.7118C24.3519 12.8828 24.0374 12.8711 23.766 12.9613C23.2868 13.1205 22.9825 13.5793 22.715 14.0076C22.6241 14.1527 22.5315 14.3354 22.6154 14.4852C22.7072 14.6499 22.9386 14.6499 23.1268 14.646C23.4256 14.6397 23.726 14.6789 24.0131 14.7605C24.1308 14.7942 24.2484 14.8358 24.3496 14.9048C24.4923 15.0029 24.5927 15.1495 24.708 15.279C25.2131 15.846 26.0641 16.0758 26.7857 15.8405C26.9167 15.7982 27.0461 15.7386 27.1395 15.6374C27.2657 15.5001 27.3081 15.3033 27.3073 15.1174C27.3065 14.6852 27.0971 14.2578 26.7551 13.9927Z" fill="#77AA31"/>
<path d="M29.5559 13.7754C29.3143 13.6052 29.0233 13.5236 28.7386 13.4452C28.5213 13.3848 28.3033 13.3252 28.086 13.2648L28.0641 13.4585C27.8813 13.3824 27.657 13.4162 27.5048 13.5424C27.3519 13.6687 27.2774 13.8828 27.3182 14.0766C27.3495 14.228 27.4437 14.3574 27.5346 14.4829C27.6107 14.588 27.6876 14.6923 27.7637 14.7974C28.0452 15.1841 28.3919 15.6068 28.8696 15.6311C28.9755 15.6366 29.0884 15.6186 29.17 15.5511C29.2523 15.4837 29.2908 15.3574 29.2359 15.2664C29.2029 15.2123 29.1417 15.1754 29.1237 15.1143C29.0915 15.0068 29.2178 14.9135 29.3292 14.9064C29.4414 14.8993 29.5543 14.9386 29.6641 14.9158C29.8374 14.8797 29.9472 14.6962 29.9606 14.5189C29.9833 14.224 29.7974 13.9456 29.5559 13.7754Z" fill="#77AA31"/>
</svg>
